<mxfile host="app.diagrams.net" agent="Mozilla/5.0 (Windows NT 10.0; Win64; x64) AppleWebKit/537.36 (KHTML, like Gecko) Chrome/128.0.0.0 Safari/537.36 Edg/128.0.0.0" version="24.7.10">
  <diagram id="C5RBs43oDa-KdzZeNtuy" name="Page-1">
    <mxGraphModel dx="1878" dy="942" grid="1" gridSize="10" guides="1" tooltips="1" connect="1" arrows="1" fold="1" page="1" pageScale="1" pageWidth="827" pageHeight="1169" math="0" shadow="0">
      <root>
        <mxCell id="WIyWlLk6GJQsqaUBKTNV-0" />
        <mxCell id="WIyWlLk6GJQsqaUBKTNV-1" parent="WIyWlLk6GJQsqaUBKTNV-0" />
        <mxCell id="x5jtCAYJQrV8_BksYnEG-3" value="PRESTAMO" style="rounded=0;whiteSpace=wrap;html=1;movable=1;resizable=1;rotatable=1;deletable=1;editable=1;locked=0;connectable=1;fillColor=#dae8fc;strokeColor=#6c8ebf;" vertex="1" parent="WIyWlLk6GJQsqaUBKTNV-1">
          <mxGeometry x="60" y="220" width="240" height="20" as="geometry" />
        </mxCell>
        <mxCell id="x5jtCAYJQrV8_BksYnEG-4" value="PK Codigo&amp;nbsp;" style="rounded=0;whiteSpace=wrap;html=1;fillColor=#dae8fc;strokeColor=#6c8ebf;movable=1;resizable=1;rotatable=1;deletable=1;editable=1;locked=0;connectable=1;" vertex="1" parent="WIyWlLk6GJQsqaUBKTNV-1">
          <mxGeometry x="60" y="240" width="240" height="20" as="geometry" />
        </mxCell>
        <mxCell id="x5jtCAYJQrV8_BksYnEG-6" value="FK Numero_Cinta" style="rounded=0;whiteSpace=wrap;html=1;movable=1;resizable=1;rotatable=1;deletable=1;editable=1;locked=0;connectable=1;fillColor=#d5e8d4;strokeColor=#82b366;" vertex="1" parent="WIyWlLk6GJQsqaUBKTNV-1">
          <mxGeometry x="60" y="260" width="240" height="20" as="geometry" />
        </mxCell>
        <mxCell id="x5jtCAYJQrV8_BksYnEG-7" value="Fecha&amp;nbsp;" style="rounded=0;whiteSpace=wrap;html=1;movable=1;resizable=1;rotatable=1;deletable=1;editable=1;locked=0;connectable=1;" vertex="1" parent="WIyWlLk6GJQsqaUBKTNV-1">
          <mxGeometry x="60" y="280" width="240" height="20" as="geometry" />
        </mxCell>
        <mxCell id="x5jtCAYJQrV8_BksYnEG-9" value="CINTA" style="rounded=0;whiteSpace=wrap;html=1;fillColor=#dae8fc;strokeColor=#6c8ebf;" vertex="1" parent="WIyWlLk6GJQsqaUBKTNV-1">
          <mxGeometry x="520" y="130" width="240" height="20" as="geometry" />
        </mxCell>
        <mxCell id="x5jtCAYJQrV8_BksYnEG-10" value="PK Numero" style="rounded=0;whiteSpace=wrap;html=1;fillColor=#dae8fc;strokeColor=#6c8ebf;" vertex="1" parent="WIyWlLk6GJQsqaUBKTNV-1">
          <mxGeometry x="520" y="150" width="240" height="20" as="geometry" />
        </mxCell>
        <mxCell id="x5jtCAYJQrV8_BksYnEG-11" value="FK Titulo_Pelicula" style="rounded=0;whiteSpace=wrap;html=1;fillColor=#d5e8d4;strokeColor=#82b366;" vertex="1" parent="WIyWlLk6GJQsqaUBKTNV-1">
          <mxGeometry x="520" y="170" width="240" height="20" as="geometry" />
        </mxCell>
        <mxCell id="x5jtCAYJQrV8_BksYnEG-12" value="FK Nombbre_Director" style="rounded=0;whiteSpace=wrap;html=1;fillColor=#d5e8d4;strokeColor=#82b366;" vertex="1" parent="WIyWlLk6GJQsqaUBKTNV-1">
          <mxGeometry x="520" y="190" width="240" height="20" as="geometry" />
        </mxCell>
        <mxCell id="x5jtCAYJQrV8_BksYnEG-13" value="DEVUELTA" style="rounded=0;whiteSpace=wrap;html=1;fillColor=#dae8fc;strokeColor=#6c8ebf;" vertex="1" parent="WIyWlLk6GJQsqaUBKTNV-1">
          <mxGeometry x="921" y="130" width="240" height="20" as="geometry" />
        </mxCell>
        <mxCell id="x5jtCAYJQrV8_BksYnEG-14" value="PK Fecha" style="rounded=0;whiteSpace=wrap;html=1;fillColor=#dae8fc;strokeColor=#6c8ebf;" vertex="1" parent="WIyWlLk6GJQsqaUBKTNV-1">
          <mxGeometry x="921" y="150" width="239" height="20" as="geometry" />
        </mxCell>
        <mxCell id="x5jtCAYJQrV8_BksYnEG-15" value="FK Numero_Cinta&lt;span style=&quot;color: rgba(0, 0, 0, 0); font-family: monospace; font-size: 0px; text-align: start; text-wrap: nowrap;&quot;&gt;%3CmxGraphModel%3E%3Croot%3E%3CmxCell%20id%3D%220%22%2F%3E%3CmxCell%20id%3D%221%22%20parent%3D%220%22%2F%3E%3CmxCell%20id%3D%222%22%20value%3D%22%22%20style%3D%22rounded%3D0%3BwhiteSpace%3Dwrap%3Bhtml%3D1%3B%22%20vertex%3D%221%22%20parent%3D%221%22%3E%3CmxGeometry%20x%3D%22921%22%20y%3D%22170%22%20width%3D%22239%22%20height%3D%2220%22%20as%3D%22geometry%22%2F%3E%3C%2FmxCell%3E%3C%2Froot%3E%3C%2FmxGraphModel%3E&lt;/span&gt;" style="rounded=0;whiteSpace=wrap;html=1;fillColor=#d5e8d4;strokeColor=#82b366;" vertex="1" parent="WIyWlLk6GJQsqaUBKTNV-1">
          <mxGeometry x="921" y="170" width="239" height="20" as="geometry" />
        </mxCell>
        <mxCell id="x5jtCAYJQrV8_BksYnEG-17" value="FK Codigo_Socio" style="rounded=0;whiteSpace=wrap;html=1;fillColor=#d5e8d4;strokeColor=#82b366;" vertex="1" parent="WIyWlLk6GJQsqaUBKTNV-1">
          <mxGeometry x="921" y="190" width="239" height="20" as="geometry" />
        </mxCell>
        <mxCell id="x5jtCAYJQrV8_BksYnEG-18" value="PELICULA" style="rounded=0;whiteSpace=wrap;html=1;fillColor=#dae8fc;strokeColor=#6c8ebf;" vertex="1" parent="WIyWlLk6GJQsqaUBKTNV-1">
          <mxGeometry x="80" y="380" width="239" height="20" as="geometry" />
        </mxCell>
        <mxCell id="x5jtCAYJQrV8_BksYnEG-19" value="PK&amp;nbsp; Titulo" style="rounded=0;whiteSpace=wrap;html=1;fillColor=#dae8fc;strokeColor=#6c8ebf;" vertex="1" parent="WIyWlLk6GJQsqaUBKTNV-1">
          <mxGeometry x="80" y="400" width="239" height="20" as="geometry" />
        </mxCell>
        <mxCell id="x5jtCAYJQrV8_BksYnEG-20" value="FK Nombre_Genero" style="rounded=0;whiteSpace=wrap;html=1;fillColor=#d5e8d4;strokeColor=#82b366;" vertex="1" parent="WIyWlLk6GJQsqaUBKTNV-1">
          <mxGeometry x="80" y="440" width="239" height="20" as="geometry" />
        </mxCell>
        <mxCell id="x5jtCAYJQrV8_BksYnEG-21" value="FK Nombre_Director" style="rounded=0;whiteSpace=wrap;html=1;fillColor=#d5e8d4;strokeColor=#82b366;" vertex="1" parent="WIyWlLk6GJQsqaUBKTNV-1">
          <mxGeometry x="81" y="420" width="239" height="20" as="geometry" />
        </mxCell>
        <mxCell id="x5jtCAYJQrV8_BksYnEG-41" value="DIRECTOR" style="rounded=0;whiteSpace=wrap;html=1;fillColor=#dae8fc;strokeColor=#6c8ebf;" vertex="1" parent="WIyWlLk6GJQsqaUBKTNV-1">
          <mxGeometry x="921" y="360" width="239" height="20" as="geometry" />
        </mxCell>
        <mxCell id="x5jtCAYJQrV8_BksYnEG-43" value="PK Nombre" style="rounded=0;whiteSpace=wrap;html=1;fillColor=#dae8fc;strokeColor=#6c8ebf;" vertex="1" parent="WIyWlLk6GJQsqaUBKTNV-1">
          <mxGeometry x="921" y="380" width="239" height="20" as="geometry" />
        </mxCell>
        <mxCell id="x5jtCAYJQrV8_BksYnEG-54" value="GENERO" style="rounded=0;whiteSpace=wrap;html=1;fillColor=#dae8fc;strokeColor=#6c8ebf;" vertex="1" parent="WIyWlLk6GJQsqaUBKTNV-1">
          <mxGeometry x="921" y="430" width="239" height="20" as="geometry" />
        </mxCell>
        <mxCell id="x5jtCAYJQrV8_BksYnEG-56" value="PK Nombre" style="rounded=0;whiteSpace=wrap;html=1;fillColor=#dae8fc;strokeColor=#6c8ebf;" vertex="1" parent="WIyWlLk6GJQsqaUBKTNV-1">
          <mxGeometry x="921" y="450" width="239" height="20" as="geometry" />
        </mxCell>
        <mxCell id="x5jtCAYJQrV8_BksYnEG-58" value="SOCIO" style="rounded=0;whiteSpace=wrap;html=1;fillColor=#dae8fc;strokeColor=#6c8ebf;" vertex="1" parent="WIyWlLk6GJQsqaUBKTNV-1">
          <mxGeometry x="501" y="270" width="239" height="20" as="geometry" />
        </mxCell>
        <mxCell id="x5jtCAYJQrV8_BksYnEG-59" value="Nombre" style="rounded=0;whiteSpace=wrap;html=1;" vertex="1" parent="WIyWlLk6GJQsqaUBKTNV-1">
          <mxGeometry x="501" y="310" width="239" height="20" as="geometry" />
        </mxCell>
        <mxCell id="x5jtCAYJQrV8_BksYnEG-60" value="PK Codigo" style="rounded=0;whiteSpace=wrap;html=1;fillColor=#dae8fc;strokeColor=#6c8ebf;" vertex="1" parent="WIyWlLk6GJQsqaUBKTNV-1">
          <mxGeometry x="501" y="290" width="239" height="20" as="geometry" />
        </mxCell>
        <mxCell id="x5jtCAYJQrV8_BksYnEG-61" value="Direccion" style="rounded=0;whiteSpace=wrap;html=1;" vertex="1" parent="WIyWlLk6GJQsqaUBKTNV-1">
          <mxGeometry x="500" y="370" width="239" height="20" as="geometry" />
        </mxCell>
        <mxCell id="x5jtCAYJQrV8_BksYnEG-62" value="SOCIO_GENERO" style="rounded=0;whiteSpace=wrap;html=1;fillColor=#dae8fc;strokeColor=#6c8ebf;" vertex="1" parent="WIyWlLk6GJQsqaUBKTNV-1">
          <mxGeometry x="470" y="554" width="239" height="20" as="geometry" />
        </mxCell>
        <mxCell id="x5jtCAYJQrV8_BksYnEG-63" value="FK Nombre_Genero" style="rounded=0;whiteSpace=wrap;html=1;fillColor=#d5e8d4;strokeColor=#82b366;" vertex="1" parent="WIyWlLk6GJQsqaUBKTNV-1">
          <mxGeometry x="470" y="594" width="239" height="20" as="geometry" />
        </mxCell>
        <mxCell id="x5jtCAYJQrV8_BksYnEG-64" value="FK Codigo_Socio" style="rounded=0;whiteSpace=wrap;html=1;fillColor=#d5e8d4;strokeColor=#82b366;" vertex="1" parent="WIyWlLk6GJQsqaUBKTNV-1">
          <mxGeometry x="470" y="574" width="239" height="20" as="geometry" />
        </mxCell>
        <mxCell id="x5jtCAYJQrV8_BksYnEG-66" value="SOCIO_DIRECTOR" style="rounded=0;whiteSpace=wrap;html=1;fillColor=#dae8fc;strokeColor=#6c8ebf;" vertex="1" parent="WIyWlLk6GJQsqaUBKTNV-1">
          <mxGeometry x="921" y="520" width="239" height="20" as="geometry" />
        </mxCell>
        <mxCell id="x5jtCAYJQrV8_BksYnEG-67" value="FK Nombre_Director" style="rounded=0;whiteSpace=wrap;html=1;fillColor=#d5e8d4;strokeColor=#82b366;" vertex="1" parent="WIyWlLk6GJQsqaUBKTNV-1">
          <mxGeometry x="920" y="560" width="239" height="20" as="geometry" />
        </mxCell>
        <mxCell id="x5jtCAYJQrV8_BksYnEG-68" value="FK Codigo_Socio" style="rounded=0;whiteSpace=wrap;html=1;fillColor=#d5e8d4;strokeColor=#82b366;" vertex="1" parent="WIyWlLk6GJQsqaUBKTNV-1">
          <mxGeometry x="920" y="540" width="239" height="20" as="geometry" />
        </mxCell>
        <mxCell id="x5jtCAYJQrV8_BksYnEG-70" value="ACTOR" style="rounded=0;whiteSpace=wrap;html=1;fillColor=#dae8fc;strokeColor=#6c8ebf;" vertex="1" parent="WIyWlLk6GJQsqaUBKTNV-1">
          <mxGeometry x="81" y="770" width="239" height="20" as="geometry" />
        </mxCell>
        <mxCell id="x5jtCAYJQrV8_BksYnEG-72" value="PK Nombre" style="rounded=0;whiteSpace=wrap;html=1;fillColor=#dae8fc;strokeColor=#6c8ebf;" vertex="1" parent="WIyWlLk6GJQsqaUBKTNV-1">
          <mxGeometry x="81" y="790" width="239" height="20" as="geometry" />
        </mxCell>
        <mxCell id="x5jtCAYJQrV8_BksYnEG-74" value="SOCIO_ACTOR" style="rounded=0;whiteSpace=wrap;html=1;fillColor=#dae8fc;strokeColor=#6c8ebf;" vertex="1" parent="WIyWlLk6GJQsqaUBKTNV-1">
          <mxGeometry x="922" y="670" width="239" height="20" as="geometry" />
        </mxCell>
        <mxCell id="x5jtCAYJQrV8_BksYnEG-75" value="Fk Nombre_Actor" style="rounded=0;whiteSpace=wrap;html=1;fillColor=#d5e8d4;strokeColor=#82b366;" vertex="1" parent="WIyWlLk6GJQsqaUBKTNV-1">
          <mxGeometry x="922" y="710" width="239" height="20" as="geometry" />
        </mxCell>
        <mxCell id="x5jtCAYJQrV8_BksYnEG-76" value="FK&amp;nbsp; Codigo_Socio" style="rounded=0;whiteSpace=wrap;html=1;fillColor=#d5e8d4;strokeColor=#82b366;" vertex="1" parent="WIyWlLk6GJQsqaUBKTNV-1">
          <mxGeometry x="922" y="690" width="239" height="20" as="geometry" />
        </mxCell>
        <mxCell id="x5jtCAYJQrV8_BksYnEG-79" value="Telefono" style="rounded=0;whiteSpace=wrap;html=1;" vertex="1" parent="WIyWlLk6GJQsqaUBKTNV-1">
          <mxGeometry x="501" y="350" width="239" height="20" as="geometry" />
        </mxCell>
        <mxCell id="x5jtCAYJQrV8_BksYnEG-84" value="REPARTO" style="rounded=0;whiteSpace=wrap;html=1;fillColor=#dae8fc;strokeColor=#6c8ebf;" vertex="1" parent="WIyWlLk6GJQsqaUBKTNV-1">
          <mxGeometry x="490.25" y="640" width="238.5" height="20" as="geometry" />
        </mxCell>
        <mxCell id="x5jtCAYJQrV8_BksYnEG-85" value="PK Codigo" style="rounded=0;whiteSpace=wrap;html=1;fillColor=#dae8fc;strokeColor=#6c8ebf;" vertex="1" parent="WIyWlLk6GJQsqaUBKTNV-1">
          <mxGeometry x="490" y="660" width="238.5" height="20" as="geometry" />
        </mxCell>
        <mxCell id="x5jtCAYJQrV8_BksYnEG-86" value="FK Nombre_director" style="rounded=0;whiteSpace=wrap;html=1;fillColor=#d5e8d4;strokeColor=#82b366;" vertex="1" parent="WIyWlLk6GJQsqaUBKTNV-1">
          <mxGeometry x="490" y="680" width="238.5" height="20" as="geometry" />
        </mxCell>
        <mxCell id="x5jtCAYJQrV8_BksYnEG-87" value="Nombre_Actor" style="rounded=0;whiteSpace=wrap;html=1;fillColor=#d5e8d4;strokeColor=#82b366;" vertex="1" parent="WIyWlLk6GJQsqaUBKTNV-1">
          <mxGeometry x="490.5" y="720" width="238.5" height="20" as="geometry" />
        </mxCell>
        <mxCell id="x5jtCAYJQrV8_BksYnEG-88" value="FK Titulo_Pelicula" style="rounded=0;whiteSpace=wrap;html=1;fillColor=#d5e8d4;strokeColor=#82b366;" vertex="1" parent="WIyWlLk6GJQsqaUBKTNV-1">
          <mxGeometry x="490.25" y="700" width="238.5" height="20" as="geometry" />
        </mxCell>
        <mxCell id="x5jtCAYJQrV8_BksYnEG-103" value="" style="edgeStyle=entityRelationEdgeStyle;fontSize=12;html=1;endArrow=ERoneToMany;rounded=0;entryX=1;entryY=1;entryDx=0;entryDy=0;exitX=0;exitY=0.5;exitDx=0;exitDy=0;" edge="1" parent="WIyWlLk6GJQsqaUBKTNV-1" source="x5jtCAYJQrV8_BksYnEG-43" target="x5jtCAYJQrV8_BksYnEG-12">
          <mxGeometry width="100" height="100" relative="1" as="geometry">
            <mxPoint x="650" y="177.5" as="sourcePoint" />
            <mxPoint x="813" y="362.5" as="targetPoint" />
            <Array as="points">
              <mxPoint x="812" y="337.5" />
            </Array>
          </mxGeometry>
        </mxCell>
        <mxCell id="x5jtCAYJQrV8_BksYnEG-105" value="" style="edgeStyle=entityRelationEdgeStyle;fontSize=12;html=1;endArrow=ERoneToMany;rounded=0;entryX=1;entryY=0.25;entryDx=0;entryDy=0;" edge="1" parent="WIyWlLk6GJQsqaUBKTNV-1" source="x5jtCAYJQrV8_BksYnEG-15" target="x5jtCAYJQrV8_BksYnEG-10">
          <mxGeometry width="100" height="100" relative="1" as="geometry">
            <mxPoint x="880" y="70" as="sourcePoint" />
            <mxPoint x="810" y="160" as="targetPoint" />
            <Array as="points">
              <mxPoint x="910" y="200" />
              <mxPoint x="900" y="170" />
              <mxPoint x="930" y="190" />
              <mxPoint x="822" y="170" />
            </Array>
          </mxGeometry>
        </mxCell>
        <mxCell id="x5jtCAYJQrV8_BksYnEG-106" value="" style="edgeStyle=entityRelationEdgeStyle;fontSize=12;html=1;endArrow=ERoneToMany;rounded=0;exitX=1;exitY=0.5;exitDx=0;exitDy=0;entryX=0;entryY=0.75;entryDx=0;entryDy=0;" edge="1" parent="WIyWlLk6GJQsqaUBKTNV-1" source="x5jtCAYJQrV8_BksYnEG-60" target="x5jtCAYJQrV8_BksYnEG-17">
          <mxGeometry width="100" height="100" relative="1" as="geometry">
            <mxPoint x="1340" y="230" as="sourcePoint" />
            <mxPoint x="1150" y="220" as="targetPoint" />
            <Array as="points">
              <mxPoint x="1320" y="220" />
              <mxPoint x="2002" y="-27.5" />
              <mxPoint x="2012" y="30" />
              <mxPoint x="982" y="510" />
              <mxPoint x="991" y="510" />
              <mxPoint x="1942" y="32.5" />
              <mxPoint x="1643" y="-37" />
              <mxPoint x="1983" y="-37.5" />
              <mxPoint x="1502" y="240" />
              <mxPoint x="1532" y="242.5" />
              <mxPoint x="1943" y="140" />
              <mxPoint x="1923" y="42.5" />
              <mxPoint x="1927" y="-20" />
              <mxPoint x="1853" y="45" />
              <mxPoint x="1033" y="370" />
              <mxPoint x="1333" y="362.5" />
              <mxPoint x="1927" y="-20" />
              <mxPoint x="1824" y="-34" />
            </Array>
          </mxGeometry>
        </mxCell>
        <mxCell id="x5jtCAYJQrV8_BksYnEG-110" value="Hora" style="rounded=0;whiteSpace=wrap;html=1;" vertex="1" parent="WIyWlLk6GJQsqaUBKTNV-1">
          <mxGeometry x="59.5" y="660" width="240" height="20" as="geometry" />
        </mxCell>
        <mxCell id="x5jtCAYJQrV8_BksYnEG-111" value="Fecha" style="rounded=0;whiteSpace=wrap;html=1;" vertex="1" parent="WIyWlLk6GJQsqaUBKTNV-1">
          <mxGeometry x="60" y="640" width="240" height="20" as="geometry" />
        </mxCell>
        <mxCell id="x5jtCAYJQrV8_BksYnEG-112" value="FK Titulo_Pelicula" style="rounded=0;whiteSpace=wrap;html=1;fillColor=#d5e8d4;strokeColor=#82b366;" vertex="1" parent="WIyWlLk6GJQsqaUBKTNV-1">
          <mxGeometry x="60" y="620" width="239.5" height="20" as="geometry" />
        </mxCell>
        <mxCell id="x5jtCAYJQrV8_BksYnEG-113" value="FK Nombre_Director" style="rounded=0;whiteSpace=wrap;html=1;fillColor=#d5e8d4;strokeColor=#82b366;" vertex="1" parent="WIyWlLk6GJQsqaUBKTNV-1">
          <mxGeometry x="60.5" y="600" width="239" height="20" as="geometry" />
        </mxCell>
        <mxCell id="x5jtCAYJQrV8_BksYnEG-114" value="FK Codigo_Socio" style="rounded=0;whiteSpace=wrap;html=1;fillColor=#d5e8d4;strokeColor=#82b366;" vertex="1" parent="WIyWlLk6GJQsqaUBKTNV-1">
          <mxGeometry x="60.5" y="581" width="239" height="20" as="geometry" />
        </mxCell>
        <mxCell id="x5jtCAYJQrV8_BksYnEG-115" value="PK Codigo" style="rounded=0;whiteSpace=wrap;html=1;fillColor=#dae8fc;strokeColor=#6c8ebf;" vertex="1" parent="WIyWlLk6GJQsqaUBKTNV-1">
          <mxGeometry x="61.5" y="560" width="238" height="20" as="geometry" />
        </mxCell>
        <mxCell id="x5jtCAYJQrV8_BksYnEG-116" value="LISTA_ESPERA" style="rounded=0;whiteSpace=wrap;html=1;fillColor=#dae8fc;strokeColor=#6c8ebf;" vertex="1" parent="WIyWlLk6GJQsqaUBKTNV-1">
          <mxGeometry x="60.5" y="540" width="239" height="20" as="geometry" />
        </mxCell>
        <mxCell id="x5jtCAYJQrV8_BksYnEG-124" value="Telefono" style="rounded=0;whiteSpace=wrap;html=1;" vertex="1" parent="WIyWlLk6GJQsqaUBKTNV-1">
          <mxGeometry x="500" y="330" width="239" height="20" as="geometry" />
        </mxCell>
        <mxCell id="x5jtCAYJQrV8_BksYnEG-125" value="" style="edgeStyle=entityRelationEdgeStyle;fontSize=12;html=1;endArrow=ERoneToMany;rounded=0;entryX=1;entryY=0.5;entryDx=0;entryDy=0;" edge="1" parent="WIyWlLk6GJQsqaUBKTNV-1" target="x5jtCAYJQrV8_BksYnEG-20">
          <mxGeometry width="100" height="100" relative="1" as="geometry">
            <mxPoint x="890" y="450" as="sourcePoint" />
            <mxPoint x="700" y="520" as="targetPoint" />
            <Array as="points">
              <mxPoint x="910" y="450" />
              <mxPoint x="791" y="395" />
              <mxPoint x="21" y="495" />
              <mxPoint x="311" y="485" />
              <mxPoint x="31" y="535" />
              <mxPoint x="-99" y="505" />
              <mxPoint x="-59" y="495" />
            </Array>
          </mxGeometry>
        </mxCell>
        <mxCell id="x5jtCAYJQrV8_BksYnEG-126" value="" style="edgeStyle=entityRelationEdgeStyle;fontSize=12;html=1;endArrow=ERoneToMany;rounded=0;entryX=1;entryY=0.75;entryDx=0;entryDy=0;exitX=0;exitY=0.5;exitDx=0;exitDy=0;" edge="1" parent="WIyWlLk6GJQsqaUBKTNV-1" source="x5jtCAYJQrV8_BksYnEG-56" target="x5jtCAYJQrV8_BksYnEG-63">
          <mxGeometry width="100" height="100" relative="1" as="geometry">
            <mxPoint x="1059" y="455" as="sourcePoint" />
            <mxPoint x="857" y="605" as="targetPoint" />
            <Array as="points">
              <mxPoint x="1048" y="525" />
            </Array>
          </mxGeometry>
        </mxCell>
        <mxCell id="x5jtCAYJQrV8_BksYnEG-128" value="" style="edgeStyle=entityRelationEdgeStyle;fontSize=12;html=1;endArrow=ERoneToMany;rounded=0;entryX=1;entryY=0.5;entryDx=0;entryDy=0;" edge="1" parent="WIyWlLk6GJQsqaUBKTNV-1" source="x5jtCAYJQrV8_BksYnEG-60" target="x5jtCAYJQrV8_BksYnEG-64">
          <mxGeometry width="100" height="100" relative="1" as="geometry">
            <mxPoint x="461" y="300" as="sourcePoint" />
            <mxPoint x="410" y="595" as="targetPoint" />
            <Array as="points">
              <mxPoint x="430" y="315" />
              <mxPoint x="400" y="395" />
              <mxPoint x="320" y="365" />
            </Array>
          </mxGeometry>
        </mxCell>
        <mxCell id="x5jtCAYJQrV8_BksYnEG-131" value="" style="edgeStyle=entityRelationEdgeStyle;fontSize=12;html=1;endArrow=ERoneToMany;rounded=0;entryX=1;entryY=0.5;entryDx=0;entryDy=0;exitX=0;exitY=0.5;exitDx=0;exitDy=0;" edge="1" parent="WIyWlLk6GJQsqaUBKTNV-1" source="x5jtCAYJQrV8_BksYnEG-43" target="x5jtCAYJQrV8_BksYnEG-21">
          <mxGeometry width="100" height="100" relative="1" as="geometry">
            <mxPoint x="420" y="410" as="sourcePoint" />
            <mxPoint x="520" y="160" as="targetPoint" />
            <Array as="points">
              <mxPoint x="880" y="399" />
              <mxPoint x="330" y="20" />
            </Array>
          </mxGeometry>
        </mxCell>
        <mxCell id="x5jtCAYJQrV8_BksYnEG-132" value="" style="edgeStyle=entityRelationEdgeStyle;fontSize=12;html=1;endArrow=ERoneToMany;rounded=0;entryX=1;entryY=0.5;entryDx=0;entryDy=0;exitX=0;exitY=0.5;exitDx=0;exitDy=0;" edge="1" parent="WIyWlLk6GJQsqaUBKTNV-1" source="x5jtCAYJQrV8_BksYnEG-11" target="x5jtCAYJQrV8_BksYnEG-6">
          <mxGeometry width="100" height="100" relative="1" as="geometry">
            <mxPoint x="480" y="185" as="sourcePoint" />
            <mxPoint x="260" y="270" as="targetPoint" />
            <Array as="points">
              <mxPoint x="440" y="225" />
            </Array>
          </mxGeometry>
        </mxCell>
        <mxCell id="x5jtCAYJQrV8_BksYnEG-133" value="" style="edgeStyle=entityRelationEdgeStyle;fontSize=12;html=1;endArrow=ERoneToMany;rounded=0;" edge="1" parent="WIyWlLk6GJQsqaUBKTNV-1">
          <mxGeometry width="100" height="100" relative="1" as="geometry">
            <mxPoint x="750" y="300" as="sourcePoint" />
            <mxPoint x="920" y="550" as="targetPoint" />
          </mxGeometry>
        </mxCell>
        <mxCell id="x5jtCAYJQrV8_BksYnEG-136" value="" style="edgeStyle=entityRelationEdgeStyle;fontSize=12;html=1;endArrow=ERoneToMany;rounded=0;exitX=0;exitY=1;exitDx=0;exitDy=0;" edge="1" parent="WIyWlLk6GJQsqaUBKTNV-1" source="x5jtCAYJQrV8_BksYnEG-60" target="x5jtCAYJQrV8_BksYnEG-114">
          <mxGeometry width="100" height="100" relative="1" as="geometry">
            <mxPoint x="360" y="680" as="sourcePoint" />
            <mxPoint x="460" y="580" as="targetPoint" />
          </mxGeometry>
        </mxCell>
        <mxCell id="x5jtCAYJQrV8_BksYnEG-139" value="" style="edgeStyle=entityRelationEdgeStyle;fontSize=12;html=1;endArrow=ERoneToMany;rounded=0;entryX=1;entryY=0.5;entryDx=0;entryDy=0;" edge="1" parent="WIyWlLk6GJQsqaUBKTNV-1" target="x5jtCAYJQrV8_BksYnEG-112">
          <mxGeometry width="100" height="100" relative="1" as="geometry">
            <mxPoint x="320" y="410" as="sourcePoint" />
            <mxPoint x="350" y="620" as="targetPoint" />
          </mxGeometry>
        </mxCell>
        <mxCell id="x5jtCAYJQrV8_BksYnEG-140" value="" style="edgeStyle=entityRelationEdgeStyle;fontSize=12;html=1;endArrow=ERoneToMany;rounded=0;entryX=1;entryY=0.75;entryDx=0;entryDy=0;exitX=0;exitY=0.75;exitDx=0;exitDy=0;" edge="1" parent="WIyWlLk6GJQsqaUBKTNV-1" source="x5jtCAYJQrV8_BksYnEG-43" target="x5jtCAYJQrV8_BksYnEG-113">
          <mxGeometry width="100" height="100" relative="1" as="geometry">
            <mxPoint x="910" y="390" as="sourcePoint" />
            <mxPoint x="1020" y="290" as="targetPoint" />
          </mxGeometry>
        </mxCell>
        <mxCell id="x5jtCAYJQrV8_BksYnEG-141" value="" style="edgeStyle=entityRelationEdgeStyle;fontSize=12;html=1;endArrow=ERoneToMany;rounded=0;entryX=1;entryY=0.5;entryDx=0;entryDy=0;" edge="1" parent="WIyWlLk6GJQsqaUBKTNV-1" target="x5jtCAYJQrV8_BksYnEG-67">
          <mxGeometry width="100" height="100" relative="1" as="geometry">
            <mxPoint x="1160" y="390" as="sourcePoint" />
            <mxPoint x="1260" y="290" as="targetPoint" />
          </mxGeometry>
        </mxCell>
        <mxCell id="x5jtCAYJQrV8_BksYnEG-142" value="" style="edgeStyle=entityRelationEdgeStyle;fontSize=12;html=1;endArrow=ERoneToMany;rounded=0;exitX=0;exitY=0.5;exitDx=0;exitDy=0;" edge="1" parent="WIyWlLk6GJQsqaUBKTNV-1" source="x5jtCAYJQrV8_BksYnEG-43" target="x5jtCAYJQrV8_BksYnEG-86">
          <mxGeometry width="100" height="100" relative="1" as="geometry">
            <mxPoint x="800" y="700" as="sourcePoint" />
            <mxPoint x="900" y="600" as="targetPoint" />
            <Array as="points">
              <mxPoint x="740" y="650" />
            </Array>
          </mxGeometry>
        </mxCell>
        <mxCell id="x5jtCAYJQrV8_BksYnEG-143" value="" style="edgeStyle=entityRelationEdgeStyle;fontSize=12;html=1;endArrow=ERoneToMany;rounded=0;entryX=0;entryY=0.75;entryDx=0;entryDy=0;" edge="1" parent="WIyWlLk6GJQsqaUBKTNV-1" target="x5jtCAYJQrV8_BksYnEG-87">
          <mxGeometry width="100" height="100" relative="1" as="geometry">
            <mxPoint x="320" y="800" as="sourcePoint" />
            <mxPoint x="520" y="815" as="targetPoint" />
          </mxGeometry>
        </mxCell>
        <mxCell id="x5jtCAYJQrV8_BksYnEG-144" value="" style="edgeStyle=entityRelationEdgeStyle;fontSize=12;html=1;endArrow=ERoneToMany;rounded=0;entryX=0;entryY=0.5;entryDx=0;entryDy=0;" edge="1" parent="WIyWlLk6GJQsqaUBKTNV-1" target="x5jtCAYJQrV8_BksYnEG-88">
          <mxGeometry width="100" height="100" relative="1" as="geometry">
            <mxPoint x="320" y="410" as="sourcePoint" />
            <mxPoint x="520" y="790" as="targetPoint" />
          </mxGeometry>
        </mxCell>
        <mxCell id="x5jtCAYJQrV8_BksYnEG-148" value="" style="edgeStyle=entityRelationEdgeStyle;fontSize=12;html=1;endArrow=ERoneToMany;rounded=0;exitX=1;exitY=0.5;exitDx=0;exitDy=0;" edge="1" parent="WIyWlLk6GJQsqaUBKTNV-1" source="x5jtCAYJQrV8_BksYnEG-60">
          <mxGeometry width="100" height="100" relative="1" as="geometry">
            <mxPoint x="820" y="800" as="sourcePoint" />
            <mxPoint x="920" y="700" as="targetPoint" />
          </mxGeometry>
        </mxCell>
        <mxCell id="x5jtCAYJQrV8_BksYnEG-149" value="" style="edgeStyle=entityRelationEdgeStyle;fontSize=12;html=1;endArrow=ERoneToMany;rounded=0;exitX=1;exitY=0;exitDx=0;exitDy=0;" edge="1" parent="WIyWlLk6GJQsqaUBKTNV-1" source="x5jtCAYJQrV8_BksYnEG-72">
          <mxGeometry width="100" height="100" relative="1" as="geometry">
            <mxPoint x="821" y="820" as="sourcePoint" />
            <mxPoint x="921" y="720" as="targetPoint" />
          </mxGeometry>
        </mxCell>
      </root>
    </mxGraphModel>
  </diagram>
</mxfile>
